<?xml version="1.0" standalone="no"?>
<!DOCTYPE svg PUBLIC "-//W3C//DTD SVG 20010904//EN"
 "http://www.w3.org/TR/2001/REC-SVG-20010904/DTD/svg10.dtd">
<svg version="1.0" xmlns="http://www.w3.org/2000/svg"
 width="700.000000pt" height="700.000000pt" viewBox="0 0 700.000000 700.000000"
 preserveAspectRatio="xMidYMid meet">
<metadata>
Created by potrace 1.14, written by Peter Selinger 2001-2017
</metadata>
<g transform="translate(0.000000,700.000000) scale(0.100000,-0.100000)"
fill="#000000" stroke="none">
<path d="M3278 6996 c-1 -2 -41 -6 -88 -10 -47 -4 -96 -8 -110 -11 -14 -2 -41
-6 -60 -9 -19 -2 -57 -8 -85 -12 -27 -3 -59 -8 -70 -11 -33 -7 -59 -12 -85
-17 -59 -10 -279 -69 -359 -96 -226 -75 -456 -177 -651 -288 -86 -49 -318
-198 -330 -211 -3 -3 -43 -35 -90 -71 -90 -69 -111 -86 -198 -165 -283 -257
-530 -568 -714 -900 -48 -86 -148 -289 -148 -301 0 -2 -11 -27 -24 -56 -60
-133 -155 -432 -181 -569 -3 -13 -11 -58 -20 -99 -22 -115 -30 -160 -41 -255
-26 -230 -26 -667 1 -826 2 -13 6 -46 9 -74 21 -182 109 -547 165 -680 5 -11
25 -65 46 -120 63 -166 249 -531 312 -610 4 -6 34 -49 65 -95 52 -78 214 -286
263 -336 198 -208 293 -297 445 -419 92 -74 370 -265 386 -265 4 0 15 -6 23
-14 26 -22 298 -158 411 -205 267 -111 589 -200 859 -237 25 -3 57 -8 71 -10
163 -25 682 -25 842 1 13 2 46 7 73 10 72 10 86 12 120 19 17 3 44 8 60 11
194 37 411 101 622 184 130 52 418 192 473 231 15 11 33 20 39 20 6 0 11 5 11
10 0 6 4 10 9 10 16 0 212 134 322 220 157 122 331 284 459 429 36 41 70 79
76 85 6 6 48 61 94 121 152 200 276 403 388 638 29 59 52 110 52 113 0 3 8 24
19 47 53 118 147 417 177 562 17 81 54 301 59 350 4 33 9 71 11 85 9 47 11
525 3 605 -15 165 -21 220 -24 225 -2 3 -6 30 -10 60 -9 75 -69 337 -99 435
-188 620 -523 1154 -997 1590 -447 412 -1046 720 -1634 840 -106 22 -103 21
-158 29 -27 4 -58 9 -70 12 -12 2 -49 6 -83 10 -33 3 -74 8 -90 10 -33 5 -540
14 -546 10z m-1023 -2027 c275 -1 529 -5 565 -10 353 -48 640 -301 731 -644
32 -122 30 -290 -4 -417 -50 -183 -148 -338 -288 -453 -52 -43 -156 -100 -259
-141 -22 -9 -40 -19 -40 -22 0 -3 26 -55 59 -116 32 -61 89 -169 126 -241 37
-71 114 -218 170 -325 210 -400 287 -552 281 -557 -11 -11 -288 -8 -346 3
-107 22 -188 79 -244 173 -32 54 -94 173 -278 531 -116 225 -310 604 -372 725
-28 55 -50 107 -50 115 1 8 2 23 3 33 0 9 10 26 21 37 19 19 32 20 223 19 166
-1 213 1 262 16 203 59 318 195 329 391 11 200 -143 396 -342 434 -28 5 -213
9 -409 9 -208 0 -381 5 -413 11 -144 27 -231 103 -319 280 -33 66 -58 127 -55
135 6 14 58 22 119 18 17 -1 255 -3 530 -4z m3197 -21 c11 -29 -1 -2114 -12
-2183 -42 -266 -226 -523 -455 -638 -133 -66 -268 -95 -441 -95 -200 1 -356
43 -474 128 -82 59 -102 91 -278 430 -50 96 -96 195 -102 219 -31 119 3 266
87 376 36 47 115 115 133 115 5 0 34 -51 66 -112 31 -62 60 -117 64 -123 4 -5
44 -82 90 -170 189 -363 214 -398 310 -430 58 -19 157 -26 214 -13 67 14 162
66 221 119 74 68 122 166 133 269 4 41 7 435 5 875 -2 873 -2 883 54 993 38
74 109 134 233 198 106 54 144 64 152 42z m-3784 -1208 c20 -15 51 -62 88
-134 68 -134 119 -229 169 -316 75 -132 73 -113 71 -530 -1 -338 -3 -380 -20
-430 -55 -161 -204 -281 -363 -294 -75 -6 -70 -71 -70 884 l0 852 47 -4 c27
-3 59 -14 78 -28z"/>
</g>
</svg>
