<svg width="28" height="23" viewBox="0 0 28 23" fill="none" xmlns="http://www.w3.org/2000/svg">
<mask id="mask0_239_2271" style="mask-type:alpha" maskUnits="userSpaceOnUse" x="0" y="0" width="28" height="23">
<path fill-rule="evenodd" clip-rule="evenodd" d="M0.108887 0H27.7119V22.4333H0.108887V0Z" fill="white"/>
</mask>
<g mask="url(#mask0_239_2271)">
<path fill-rule="evenodd" clip-rule="evenodd" d="M8.78994 22.4333C19.2066 22.4333 24.903 13.8034 24.903 6.32022C24.903 6.07499 24.898 5.83087 24.8868 5.58807C25.9925 4.7888 26.9536 3.79145 27.712 2.65586C26.6973 3.10656 25.6052 3.41041 24.4598 3.54744C25.6289 2.84643 26.5267 1.73701 26.95 0.414708C25.8555 1.06338 24.644 1.53528 23.3541 1.78923C22.3206 0.688531 20.8488 0 19.2203 0C16.0925 0 13.5562 2.53628 13.5562 5.66282C13.5562 6.10734 13.606 6.53939 13.7032 6.95409C8.99663 6.71748 4.82294 4.46386 2.03017 1.03721C1.54336 1.87392 1.26314 2.84643 1.26314 3.88364C1.26314 5.84843 2.26303 7.58289 3.7833 8.59758C2.8544 8.56898 1.98159 8.31371 1.21831 7.88907C1.21709 7.91269 1.21709 7.93643 1.21709 7.96128C1.21709 10.7044 3.1694 12.9941 5.76056 13.5134C5.2849 13.6428 4.7844 13.7127 4.26767 13.7127C3.90276 13.7127 3.5479 13.6764 3.20308 13.6104C3.92396 15.8604 6.01451 17.4977 8.49359 17.5438C6.55486 19.0629 4.11321 19.9681 1.45989 19.9681C1.00289 19.9681 0.552192 19.9419 0.108887 19.8896C2.61536 21.4958 5.59119 22.4333 8.78994 22.4333Z" fill="white"/>
</g>
</svg>
